<?xml version="1.0" encoding="UTF-8" standalone="no"?>
<svg width="127px" height="39px" viewBox="0 0 127 39" version="1.1" xmlns="http://www.w3.org/2000/svg" xmlns:xlink="http://www.w3.org/1999/xlink" xmlns:sketch="http://www.bohemiancoding.com/sketch/ns">
    <!-- Generator: Sketch 3.0.4 (8054) - http://www.bohemiancoding.com/sketch -->
    <title>spotify-logo-horizontal-black-cmyk</title>
    <desc>Created with Sketch.</desc>
    <defs>
        <path id="path-1" d="M0.0114932127,0.0736884422 L126.854802,0.0736884422 L126.854802,38.9882412 L0.0114932127,38.9882412 L0.0114932127,0.0736884422 Z"></path>
    </defs>
    <g id="Welcome" stroke="none" stroke-width="1" fill="none" fill-rule="evenodd" sketch:type="MSPage">
        <g id="Desktop-HD" sketch:type="MSArtboardGroup" transform="translate(-230.000000, -43.000000)">
            <g id="spotify-logo-horizontal-black-cmyk" sketch:type="MSLayerGroup" transform="translate(230.000000, 43.000000)">
                <g id="Group-3">
                    <mask id="mask-2" sketch:name="Clip 2" fill="white">
                        <use xlink:href="#path-1"></use>
                    </mask>
                    <g id="Clip-2"></g>
                    <path d="M30.2765701,17.3281508 C24.1443665,13.6023769 14.0297647,13.259804 8.17588839,15.0775176 C7.23574359,15.3693317 6.24177225,14.8262714 5.95693213,13.864598 C5.67190045,12.9023367 6.20212066,11.8859849 7.14284012,11.5935829 C13.86273,9.50659296 25.0333665,9.9099196 32.0928808,14.1971759 C32.9383982,14.7106432 33.2157677,15.8279246 32.7144721,16.691608 C32.2129849,17.5566633 31.1199804,17.8418141 30.2765701,17.3281508 L30.2765701,17.3281508 Z M30.075822,22.8465528 C29.6455928,23.5608995 28.7328401,23.7847085 28.0355852,23.3463015 C22.9234042,20.1312513 15.1277496,19.1997588 9.07944646,21.0782261 C8.29503469,21.3206533 7.46656561,20.8681357 7.22846456,20.0673618 C6.99208748,19.2648241 7.43438462,18.4187789 8.21745551,18.1747839 C15.1267919,16.0297839 23.7160528,17.0686734 29.5877436,20.7605427 C30.2849985,21.1997337 30.5045189,22.1339698 30.075822,22.8465528 L30.075822,22.8465528 Z M27.7478718,28.1464372 C27.4061403,28.7198744 26.6761297,28.8995879 26.1177511,28.5501558 C21.6503394,25.7566583 16.0276682,25.125799 9.40566214,26.6734523 C8.76759729,26.8229849 8.13163952,26.4137789 7.98605882,25.7611658 C7.83990347,25.1083568 8.23833484,24.4577035 8.87793213,24.3087588 C16.1244027,22.6139246 22.3403152,23.3431658 27.3546124,26.4780603 C27.9137572,26.8274925 28.0897949,27.5745678 27.7478718,28.1464372 L27.7478718,28.1464372 Z M19.0235656,0.0736884422 C8.5172368,0.0736884422 0,8.78754271 0,19.5366482 C0,30.2865377 8.5172368,39 19.0235656,39 C29.5302775,39 38.0471312,30.2865377 38.0471312,19.5366482 C38.0471312,8.78754271 29.5302775,0.0736884422 19.0235656,0.0736884422 L19.0235656,0.0736884422 Z" id="Fill-1" fill="#1A1918" sketch:type="MSShapeGroup" mask="url(#mask-2)"></path>
                </g>
                <path d="M51.7564268,18.0415176 C48.4720498,17.2401558 47.8870452,16.6776935 47.8870452,15.4959347 C47.8870452,14.3794372 48.9145385,13.6282462 50.4425611,13.6282462 C51.9236531,13.6282462 53.3921026,14.1987437 54.9320015,15.3734472 C54.9787406,15.4089196 55.0369729,15.4232261 55.0944389,15.4138191 C55.151905,15.405196 55.2028582,15.3728593 55.2363801,15.3240603 L56.8402579,13.0111055 C56.9061523,12.9158593 56.8881463,12.7845528 56.799457,12.7118442 C54.9668643,11.2073065 52.9032579,10.4759095 50.4912157,10.4759095 C46.9446018,10.4759095 44.4676229,12.6534422 44.4676229,15.7689347 C44.4676229,19.11 46.6044027,20.2927387 50.2971719,21.206005 C53.4401825,21.9466131 53.9707858,22.5670854 53.9707858,23.6767236 C53.9707858,24.9059095 52.898086,25.6700352 51.171997,25.6700352 C49.2547376,25.6700352 47.6908944,25.009191 45.9414359,23.4593819 C45.8979532,23.4211658 45.8385716,23.4035276 45.7835958,23.4068593 C45.7257466,23.4117588 45.6728778,23.439196 45.635908,23.4844673 L43.8377949,25.6739548 C43.7623228,25.7648894 43.7719005,25.9005075 43.8590573,25.9792915 C45.8945053,27.8383568 48.397727,28.8204121 51.0992066,28.8204121 C54.9208914,28.8204121 57.3902081,26.6838392 57.3902081,23.3772663 C57.3902081,20.5827889 55.7583635,19.0372915 51.7564268,18.0415176" id="Fill-4" fill="#1A1918" sketch:type="MSShapeGroup"></path>
                <path d="M68.8106305,21.7868894 C68.8106305,24.1464874 67.3898778,25.7931106 65.3557707,25.7931106 C63.3444585,25.7931106 61.827546,24.0716231 61.827546,21.7868894 C61.827546,19.5023518 63.3444585,17.7806683 65.3557707,17.7806683 C67.3571222,17.7806683 68.8106305,19.4651156 68.8106305,21.7868894 L68.8106305,21.7868894 Z M66.0363605,14.7273015 C64.379997,14.7273015 63.0213077,15.394809 61.9007195,16.7625528 L61.9007195,15.2229347 C61.9007195,15.1016231 61.804368,15.0024573 61.6857964,15.0024573 L58.7448748,15.0024573 C58.6261116,15.0024573 58.5299517,15.1016231 58.5299517,15.2229347 L58.5299517,32.3292362 C58.5299517,32.4507437 58.6261116,32.5497136 58.7448748,32.5497136 L61.6857964,32.5497136 C61.804368,32.5497136 61.9007195,32.4507437 61.9007195,32.3292362 L61.9007195,26.929598 C63.0214992,28.216402 64.3803801,28.8449095 66.0363605,28.8449095 C69.1144344,28.8449095 72.2300528,26.4208342 72.2300528,21.7868894 C72.2300528,17.1519648 69.1144344,14.7273015 66.0363605,14.7273015 L66.0363605,14.7273015 Z" id="Fill-5" fill="#1A1918" sketch:type="MSShapeGroup"></path>
                <path d="M80.2168778,25.817804 C78.108448,25.817804 76.5189367,24.0847538 76.5189367,21.7868894 C76.5189367,19.4794221 78.0534721,17.8047739 80.1682232,17.8047739 C82.2900618,17.8047739 83.8903002,19.5378241 83.8903002,21.8372563 C83.8903002,24.1443317 82.3454208,25.817804 80.2168778,25.817804 L80.2168778,25.817804 Z M80.2168778,14.7273015 C76.2528688,14.7273015 73.1475943,17.8500452 73.1475943,21.8372563 C73.1475943,25.7811558 76.2316063,28.8709749 80.1682232,28.8709749 C84.1460241,28.8709749 87.2608763,25.7588141 87.2608763,21.7868894 C87.2608763,17.8280955 84.1674781,14.7273015 80.2168778,14.7273015 L80.2168778,14.7273015 Z" id="Fill-6" fill="#1A1918" sketch:type="MSShapeGroup"></path>
                <path d="M95.7254359,15.0024573 L92.4891388,15.0024573 L92.4891388,11.6171005 C92.4891388,11.495593 92.3931704,11.3966231 92.2744072,11.3966231 L89.3336772,11.3966231 C89.2147225,11.3966231 89.1179879,11.495593 89.1179879,11.6171005 L89.1179879,15.0024573 L87.7037481,15.0024573 C87.585368,15.0024573 87.4895913,15.1016231 87.4895913,15.2229347 L87.4895913,17.8090854 C87.4895913,17.930397 87.585368,18.0295628 87.7037481,18.0295628 L89.1179879,18.0295628 L89.1179879,24.7211005 C89.1179879,27.4252312 90.4333861,28.7963065 93.0279789,28.7963065 C94.0828643,28.7963065 94.958264,28.5734774 95.7830935,28.0946985 C95.8501373,28.0564824 95.8918959,27.982598 95.8918959,27.9040101 L95.8918959,25.4413266 C95.8918959,25.3654824 95.8530106,25.2937538 95.7896063,25.2537739 C95.7254359,25.2126181 95.6457496,25.2106583 95.5802383,25.2439749 C95.0136229,25.535593 94.4657798,25.6700352 93.8537662,25.6700352 C92.9101735,25.6700352 92.4891388,25.2318241 92.4891388,24.2493769 L92.4891388,18.0295628 L95.7254359,18.0295628 C95.8443906,18.0295628 95.9401674,17.930397 95.9401674,17.8090854 L95.9401674,15.2229347 C95.9401674,15.1016231 95.8443906,15.0024573 95.7254359,15.0024573" id="Fill-7" fill="#1A1918" sketch:type="MSShapeGroup"></path>
                <path d="M107.001427,15.0155879 L107.001427,14.5999146 C107.001427,13.376608 107.459623,12.831196 108.487882,12.831196 C109.101045,12.831196 109.593529,12.9558392 110.145204,13.1439799 C110.213014,13.1659296 110.283888,13.1549548 110.339056,13.113407 C110.395756,13.0718593 110.427937,13.0050302 110.427937,12.9344774 L110.427937,10.3988894 C110.427937,10.3018794 110.367023,10.2160402 110.275843,10.1876231 C109.693137,10.0102613 108.947802,9.82819598 107.831428,9.82819598 C105.114816,9.82819598 103.679122,11.3932915 103.679122,14.3525879 L103.679122,14.9893266 L102.266223,14.9893266 C102.147652,14.9893266 102.050342,15.0882965 102.050342,15.209804 L102.050342,17.8090854 C102.050342,17.930397 102.147652,18.0295628 102.266223,18.0295628 L103.679122,18.0295628 L103.679122,28.3508442 C103.679122,28.4723518 103.774899,28.5713216 103.893471,28.5713216 L106.834584,28.5713216 C106.953347,28.5713216 107.050081,28.4723518 107.050081,28.3508442 L107.050081,18.0295628 L109.796002,18.0295628 L114.002326,28.3481005 C113.524783,29.4324573 113.055285,29.6480352 112.414155,29.6480352 C111.896003,29.6480352 111.350459,29.4898794 110.792655,29.1774874 C110.739977,29.1480905 110.677914,29.142995 110.621214,29.1610251 C110.565089,29.1812111 110.517775,29.2239347 110.494023,29.2797889 L109.497178,31.5172915 C109.449673,31.6229246 109.490282,31.7471759 109.589698,31.8020503 C110.630409,32.3786231 111.569787,32.6247739 112.730793,32.6247739 C114.902436,32.6247739 116.10271,31.589804 117.161044,28.8053216 L122.263264,15.3160251 C122.288932,15.2482161 122.28127,15.1715879 122.240661,15.1114221 C122.200243,15.0516482 122.135115,15.0155879 122.063665,15.0155879 L119.002065,15.0155879 C118.910502,15.0155879 118.828326,15.0751658 118.798443,15.1633568 L115.661946,24.3293367 L112.226433,15.1572814 C112.195018,15.0720302 112.114757,15.0155879 112.025493,15.0155879 L107.001427,15.0155879" id="Fill-8" fill="#1A1918" sketch:type="MSShapeGroup"></path>
                <path d="M100.464471,15.0024573 L97.5233575,15.0024573 C97.4045943,15.0024573 97.3078597,15.1016231 97.3078597,15.2229347 L97.3078597,28.3508442 C97.3078597,28.4723518 97.4045943,28.5713216 97.5233575,28.5713216 L100.464471,28.5713216 C100.583042,28.5713216 100.679968,28.4723518 100.679968,28.3508442 L100.679968,15.2229347 C100.679968,15.1016231 100.583042,15.0024573 100.464471,15.0024573" id="Fill-9" fill="#1A1918" sketch:type="MSShapeGroup"></path>
                <path d="M99.0088552,9.02507035 C97.8438265,9.02507035 96.8981267,9.99007538 96.8981267,11.1822211 C96.8981267,12.3749548 97.8438265,13.3409397 99.0088552,13.3409397 C100.173501,13.3409397 101.118051,12.3749548 101.118051,11.1822211 C101.118051,9.99007538 100.173501,9.02507035 99.0088552,9.02507035" id="Fill-10" fill="#1A1918" sketch:type="MSShapeGroup"></path>
                <path d="M124.894827,16.3082714 L124.355795,16.3082714 L124.355795,17.0114472 L124.894827,17.0114472 C125.163768,17.0114472 125.32429,16.876809 125.32429,16.6596633 C125.32429,16.4309548 125.163768,16.3082714 124.894827,16.3082714 L124.894827,16.3082714 Z M125.244029,17.3112965 L125.829608,18.1498945 L125.335974,18.1498945 L124.809011,17.3806734 L124.355795,17.3806734 L124.355795,18.1498945 L123.942614,18.1498945 L123.942614,15.9270905 L124.911492,15.9270905 C125.416044,15.9270905 125.748198,16.1912714 125.748198,16.6361457 C125.748198,17.0004724 125.542469,17.2231055 125.244029,17.3112965 L125.244029,17.3112965 Z M124.785258,15.1874623 C123.725009,15.1874623 122.922783,16.0495779 122.922783,17.1055176 C122.922783,18.1608693 123.719262,19.0114221 124.774339,19.0114221 C125.834205,19.0114221 126.637198,18.1498945 126.637198,17.0933668 C126.637198,16.0382111 125.840143,15.1874623 124.785258,15.1874623 L124.785258,15.1874623 Z M124.774339,19.2232764 C123.61046,19.2232764 122.704603,18.2668945 122.704603,17.1055176 C122.704603,15.9441407 123.622145,14.9767839 124.785258,14.9767839 C125.949137,14.9767839 126.854802,15.9329698 126.854802,17.0933668 C126.854802,18.2549397 125.938027,19.2232764 124.774339,19.2232764 L124.774339,19.2232764 Z" id="Fill-11" fill="#1A1918" sketch:type="MSShapeGroup"></path>
            </g>
        </g>
    </g>
</svg>